<svg xmlns="http://www.w3.org/2000/svg" viewBox="0 0 170.79 50.75"><defs><style>.cls-1{fill:#ff5900;}.cls-2{fill:#002c3e;}.cls-3{fill:#25c105;}.cls-4{fill:#3aabef;}</style></defs><title>Primary Logo</title><g id="Layer_2" data-name="Layer 2"><g id="Layer_1-2" data-name="Layer 1"><path class="cls-1" d="M7.18,29.71c.22,2.53.94,4.37,2.15,5.54A6.56,6.56,0,0,0,14.07,37a8.19,8.19,0,0,0,2.57-.35,11.84,11.84,0,0,0,1.91-.78L20,35.08a2.79,2.79,0,0,1,1.32-.36,1.55,1.55,0,0,1,1.31.63L24.74,38a11.42,11.42,0,0,1-2.53,2.21,13.75,13.75,0,0,1-2.87,1.38,15.17,15.17,0,0,1-3,.7,22.87,22.87,0,0,1-2.92.2,14.62,14.62,0,0,1-5.26-.93A11.82,11.82,0,0,1,3.9,38.78,12.91,12.91,0,0,1,1,34.28,17.29,17.29,0,0,1,0,28a14.75,14.75,0,0,1,.9-5.17,12.41,12.41,0,0,1,2.6-4.22,12.13,12.13,0,0,1,4.12-2.86,13.53,13.53,0,0,1,5.48-1.06,13.39,13.39,0,0,1,4.77.82,10.38,10.38,0,0,1,6.21,6.24A14.56,14.56,0,0,1,25,27a9.77,9.77,0,0,1-.07,1.33,2.25,2.25,0,0,1-.27.83.89.89,0,0,1-.49.43,2.31,2.31,0,0,1-.81.12Zm11.33-4.28a7.53,7.53,0,0,0-.3-2.14,4.89,4.89,0,0,0-1-1.8,4.66,4.66,0,0,0-1.64-1.24,5.71,5.71,0,0,0-2.38-.46,5.43,5.43,0,0,0-4,1.47,7.38,7.38,0,0,0-1.91,4.17Z"/><path class="cls-2" d="M36.2,18.67A16.61,16.61,0,0,1,37.93,17a11.3,11.3,0,0,1,2-1.28,10.41,10.41,0,0,1,2.25-.83,10.75,10.75,0,0,1,2.61-.3,8.6,8.6,0,0,1,4,.92,9,9,0,0,1,3.12,2.69,13.31,13.31,0,0,1,2,4.32,21.21,21.21,0,0,1,.74,5.85,18.26,18.26,0,0,1-.83,5.6,13.75,13.75,0,0,1-2.33,4.45,10.84,10.84,0,0,1-3.64,2.93,10.45,10.45,0,0,1-4.74,1.06,9.57,9.57,0,0,1-3.72-.65A9.39,9.39,0,0,1,36.62,40V50.75h-7.2V15.15h4.43a1.75,1.75,0,0,1,1.81,1.25ZM36.62,35a5.69,5.69,0,0,0,2.21,1.64,6.71,6.71,0,0,0,2.54.47,5.63,5.63,0,0,0,2.38-.49A4.77,4.77,0,0,0,45.59,35a7.65,7.65,0,0,0,1.18-2.7,15.92,15.92,0,0,0,.42-3.91,17.92,17.92,0,0,0-.35-3.81,7.69,7.69,0,0,0-1-2.54,3.93,3.93,0,0,0-1.55-1.39,4.69,4.69,0,0,0-2-.43,6.39,6.39,0,0,0-3.2.74,8.9,8.9,0,0,0-2.44,2.18Z"/><path class="cls-2" d="M66,19.58A11.93,11.93,0,0,1,68.93,16a6.1,6.1,0,0,1,3.92-1.33,4.81,4.81,0,0,1,3,.86l-.47,5.32a1,1,0,0,1-1.15.92,8.51,8.51,0,0,1-1.2-.12,9.67,9.67,0,0,0-1.46-.12,5.09,5.09,0,0,0-1.77.29,4.39,4.39,0,0,0-1.37.81,5.5,5.5,0,0,0-1.08,1.28,12,12,0,0,0-.9,1.72V42.06h-7.2V15.15h4.25a2.21,2.21,0,0,1,1.51.39,2.43,2.43,0,0,1,.6,1.36Z"/><path class="cls-2" d="M84,29.71c.23,2.53,1,4.37,2.16,5.54A6.54,6.54,0,0,0,90.91,37a8.15,8.15,0,0,0,2.57-.35,11.47,11.47,0,0,0,1.91-.78l1.49-.78a2.74,2.74,0,0,1,1.32-.36,1.53,1.53,0,0,1,1.3.63L101.59,38a11.64,11.64,0,0,1-2.53,2.21,14,14,0,0,1-2.87,1.38,15.43,15.43,0,0,1-3,.7,22.87,22.87,0,0,1-2.92.2A14.66,14.66,0,0,1,85,41.52a11.78,11.78,0,0,1-4.25-2.74,12.77,12.77,0,0,1-2.86-4.5,17.07,17.07,0,0,1-1-6.24,14.75,14.75,0,0,1,.9-5.17,12.41,12.41,0,0,1,2.6-4.22,12.18,12.18,0,0,1,4.13-2.86,14.47,14.47,0,0,1,10.24-.24,10.38,10.38,0,0,1,6.21,6.24A14.34,14.34,0,0,1,101.8,27a9.56,9.56,0,0,1-.08,1.33,2.26,2.26,0,0,1-.26.83.91.91,0,0,1-.5.43,2.31,2.31,0,0,1-.81.12Zm11.33-4.28a7.53,7.53,0,0,0-.3-2.14,5,5,0,0,0-1-1.8,4.79,4.79,0,0,0-1.65-1.24,5.69,5.69,0,0,0-2.37-.46,5.47,5.47,0,0,0-4,1.47,7.38,7.38,0,0,0-1.9,4.17Z"/><path class="cls-2" d="M112.94,18.28a17.63,17.63,0,0,1,1.69-1.44,11.25,11.25,0,0,1,1.85-1.12,10.1,10.1,0,0,1,2.11-.73,11.28,11.28,0,0,1,2.47-.26,9.38,9.38,0,0,1,3.89.76,8,8,0,0,1,2.86,2.11,9.12,9.12,0,0,1,1.75,3.24,13.81,13.81,0,0,1,.58,4.12v17.1H123V25a5.22,5.22,0,0,0-1-3.48,3.78,3.78,0,0,0-3.08-1.24,6.4,6.4,0,0,0-2.84.65,9.72,9.72,0,0,0-2.53,1.83V42.06h-7.21V15.15h4.44a1.74,1.74,0,0,1,1.8,1.25Z"/><path class="cls-2" d="M155.51,18.07a4.16,4.16,0,0,1-.26,1.48,3.51,3.51,0,0,1-.67,1.16L142.49,36.63h12.69v5.43h-21v-3a3.59,3.59,0,0,1,.25-1.12,5.47,5.47,0,0,1,.69-1.28l12.19-16.1H134.92V15.15h20.59Z"/><circle class="cls-1" cx="153.34" cy="3.98" r="3.68"/><circle class="cls-3" cx="167.1" cy="3.68" r="3.68"/><circle class="cls-4" cx="167.1" cy="17.55" r="3.68"/></g></g></svg>